<svg width="272" height="262" viewBox="0 0 272 262" fill="none" xmlns="http://www.w3.org/2000/svg">
<g filter="url(#filter0_f_2_19)">
<path d="M135.616 20.5C199.211 20.5 250.731 69.9915 250.731 131C250.731 192.008 199.211 241.5 135.616 241.5C72.0196 241.5 20.5 192.008 20.5 131C20.5 69.9915 72.0196 20.5 135.616 20.5Z" fill="#3B00B9" stroke="black"/>
<path d="M36.4705 137.894H45.486C48.961 180.368 84.2541 214.227 128.456 217.552V226.168C79.2572 222.807 39.9809 185.085 36.4705 137.894Z" fill="url(#paint0_linear_2_19)" stroke="black"/>
<path d="M128.408 35.7853V44.4011C84.2063 47.7269 48.913 81.586 45.4382 124.06H36.4227C39.9329 76.8686 79.2094 39.1464 128.408 35.7853Z" fill="#29ABE2" stroke="black"/>
<path d="M234.76 124.014H225.745C222.27 81.5401 186.977 47.681 142.775 44.3552V35.7394C191.973 39.1005 231.25 76.8227 234.76 124.014Z" fill="url(#paint1_linear_2_19)" stroke="black"/>
<path d="M142.823 226.122V217.507C187.024 214.181 222.318 180.322 225.794 137.848H234.809C231.298 185.039 192.022 222.762 142.823 226.122Z" fill="#29ABE2" stroke="black"/>
<path d="M177.601 118.34L177.601 118.341C176.93 122.693 175.346 125.884 173.128 128.167C170.909 130.453 168.023 131.865 164.695 132.602L163.317 132.907L164.579 133.537C169.195 135.844 172.607 138.733 174.331 142.513C176.05 146.283 176.132 151.032 173.898 157.156L173.898 157.156C171.14 164.723 166.513 168.78 160.417 170.581C154.275 172.395 146.598 171.933 137.738 170.324L137.281 170.241L137.165 170.69L132.98 186.791L123.542 184.533L127.666 168.673L127.794 168.179L127.298 168.061C124.602 167.418 121.848 166.736 119.012 165.997L118.527 165.871L118.402 166.355L114.258 182.309L104.832 180.052L109.012 163.939L109.14 163.449L108.648 163.328C107.68 163.09 106.703 162.846 105.718 162.599C104.237 162.228 102.737 161.853 101.224 161.489L101.223 161.489L88.2641 158.388L93.0106 147.881C93.214 147.933 93.4848 148.002 93.802 148.082C94.5199 148.263 95.4764 148.504 96.4298 148.74C97.3827 148.976 98.3348 149.208 99.0431 149.372C99.3963 149.453 99.6939 149.519 99.9019 149.561C100.003 149.581 100.095 149.597 100.164 149.606C100.186 149.609 100.226 149.614 100.271 149.614C101.825 149.961 103.008 149.657 103.877 149.054C104.744 148.452 105.248 147.589 105.526 146.926L105.54 146.893L105.549 146.858C109.448 131.854 113.336 116.885 117.232 101.882L117.244 101.835L117.247 101.787C117.314 100.658 117.149 99.3383 116.368 98.1576C115.594 96.9865 114.258 96.0163 112.114 95.4827C112.073 95.4614 112.037 95.4471 112.018 95.4398C111.949 95.4136 111.857 95.3851 111.758 95.3563C111.552 95.297 111.256 95.2201 110.905 95.1328C110.199 94.9575 109.245 94.7344 108.289 94.5153C107.333 94.296 106.371 94.08 105.649 93.919C105.378 93.8585 105.141 93.8058 104.95 93.7635L107.466 84.0665L120.863 87.2777L120.851 87.3294L121.334 87.4447C123.498 87.9613 125.726 88.4517 127.991 88.9469L128.461 89.0496L128.582 88.5842L132.725 72.6465L142.157 74.9043L138.105 90.5017L137.974 91.0047L138.481 91.1159C141.275 91.7279 144.082 92.3446 146.813 92.998L147.29 93.1121L147.413 92.6374L151.441 77.1268L160.879 79.3847L156.743 95.3093L156.625 95.7627L157.07 95.9097C163.619 98.0754 169.222 100.762 172.95 104.37C176.652 107.953 178.518 112.452 177.601 118.34ZM121.785 154.329L121.656 154.823L122.153 154.941C122.726 155.078 123.402 155.249 124.16 155.442C128.021 156.421 134.032 157.946 139.704 158.229C143.098 158.399 146.428 158.129 149.131 156.997C151.859 155.855 153.945 153.834 154.793 150.561C155.676 147.161 154.847 144.363 152.995 142.088C151.162 139.838 148.344 138.114 145.254 136.768C140.313 134.615 134.521 133.368 130.622 132.528C129.65 132.319 128.796 132.135 128.102 131.969L127.625 131.855L127.501 132.329L121.785 154.329ZM158.013 118.363L158.013 118.363C158.816 115.272 158.175 112.744 156.648 110.699C155.139 108.677 152.789 107.158 150.213 105.99C146.1 104.127 141.256 103.098 138.005 102.408C137.191 102.235 136.477 102.083 135.9 101.945L135.423 101.831L135.299 102.306L130.117 122.259L129.988 122.752L130.484 122.871C130.964 122.986 131.53 123.131 132.167 123.294C135.381 124.118 140.397 125.404 145.15 125.571C148.002 125.672 150.816 125.374 153.121 124.299C155.45 123.212 157.239 121.339 158.013 118.363Z" fill="white" stroke="black"/>
</g>
<defs>
<filter id="filter0_f_2_19" x="0" y="0" width="271.231" height="262" filterUnits="userSpaceOnUse" color-interpolation-filters="sRGB">
<feFlood flood-opacity="0" result="BackgroundImageFix"/>
<feBlend mode="normal" in="SourceGraphic" in2="BackgroundImageFix" result="shape"/>
<feGaussianBlur stdDeviation="10" result="effect1_foregroundBlur_2_19"/>
</filter>
<linearGradient id="paint0_linear_2_19" x1="104.69" y1="206.708" x2="44.3554" y2="153.786" gradientUnits="userSpaceOnUse">
<stop offset="0.21" stop-color="#ED1E79"/>
<stop offset="1" stop-color="#522785"/>
</linearGradient>
<linearGradient id="paint1_linear_2_19" x1="211.082" y1="104.546" x2="150.748" y2="51.6243" gradientUnits="userSpaceOnUse">
<stop offset="0.21" stop-color="#F15A24"/>
<stop offset="0.6841" stop-color="#FBB03B"/>
</linearGradient>
</defs>
</svg>
