<svg width="358.8" height="179.8" xmlns="http://www.w3.org/2000/svg" version="1.1" xml:space="preserve">
 <g>
  <title>Layer 1</title>
  <path class="st0" d="m271.6,0c-20,0 -41.9,10.9 -65,32.4c-10.9,10.1 -20.5,21.1 -27.5,29.8c0,0 11.2,12.9 23.5,26.8c6.7,-8.4 16.2,-19.8 27.3,-30.1c20.5,-19.2 33.9,-23.1 41.6,-23.1c28.8,0 52.2,24.2 52.2,54.1c0,29.6 -23.4,53.8 -52.2,54.1c-1.4,0 -3,-0.2 -5,-0.6c8.4,3.9 17.5,6.7 26,6.7c52.8,0 63.2,-36.5 63.8,-39.1c1.5,-6.7 2.4,-13.7 2.4,-20.9c-0.1,-49.7 -39.1,-90.1 -87.1,-90.1z" fill="#ffffff" id="svg_1"/>
  <path class="st1" d="m87.1,179.8c20,0 41.9,-10.9 65,-32.4c10.9,-10.1 20.5,-21.1 27.5,-29.8c0,0 -11.2,-12.9 -23.5,-26.8c-6.7,8.4 -16.2,19.8 -27.3,30.1c-20.5,19 -34,23.1 -41.6,23.1c-28.8,0 -52.2,-24.2 -52.2,-54.1c0,-29.6 23.4,-53.8 52.2,-54.1c1.4,0 3,0.2 5,0.6c-8.4,-3.9 -17.5,-6.7 -26,-6.7c-52.8,-0.1 -63.2,36.4 -63.8,39.1c-1.5,6.7 -2.4,13.7 -2.4,20.9c0,49.7 39,90.1 87.1,90.1z" fill="#ffffff" id="svg_2"/>
  <path class="st2" d="m127.3,59.7c-5.8,-5.6 -34,-28.5 -61,-29.3c-48.2,-1.2 -62.3,33.8 -63.6,38.3c9.3,-39.2 43.7,-68.5 84.5,-68.7c33.3,0 67,32.7 91.9,62.2c0,0 0.1,-0.1 0.1,-0.1c0,0 11.2,12.9 23.5,26.8c0,0 14,16.5 28.8,31c5.8,5.6 33.9,28.2 60.9,29c49.5,1.4 63.2,-35.6 63.9,-38.4c-9.1,39.5 -43.6,68.9 -84.6,69.1c-33.3,0 -67,-32.7 -92,-62.2c0,0.1 -0.1,0.1 -0.1,0.2c0,0 -11.2,-12.9 -23.5,-26.8c0.1,0 -13.9,-16.6 -28.8,-31.1zm-124.6,9.4c0,-0.1 0,-0.2 0.1,-0.3c-0.1,0.1 -0.1,0.2 -0.1,0.3z" fill-rule="evenodd" clip-rule="evenodd" fill="#ffffff" id="svg_3"/>
 </g>

</svg>