<svg viewBox="0 0 21 21" xmlns="http://www.w3.org/2000/svg" fill="#66adff" stroke="#66adff" stroke-width="1.764"><g id="SVGRepo_bgCarrier" stroke-width="0"></g><g id="SVGRepo_tracerCarrier" stroke-linecap="round" stroke-linejoin="round"></g><g id="SVGRepo_iconCarrier"> <g fill="none" fill-rule="evenodd" stroke="#66adff" stroke-linecap="round" stroke-linejoin="round" transform="matrix(0 1 -1 0 18.5 2.5)"> <g transform="matrix(0 -1 1 0 .5 16.5)"> <path d="m16 0v5h-5" transform="matrix(0 1 1 0 11 -11)"></path> <path d="m16 5c-2.8366699-3.33333333-5.6700033-5-8.5-5-2.82999674 0-5.32999674 1-7.5 3"></path> </g> <g transform="matrix(0 1 -1 0 14 1)"> <path d="m16 0v5h-5" transform="matrix(0 1 1 0 11 -11)"></path> <path d="m16 5c-2.8366699-3.33333333-5.6700033-5-8.5-5-2.82999674 0-5.32999674 1-7.5 3"></path> </g> </g> </g></svg>